<?xml version="1.0" standalone="no"?>
<!DOCTYPE svg PUBLIC "-//W3C//DTD SVG 20010904//EN"
 "http://www.w3.org/TR/2001/REC-SVG-20010904/DTD/svg10.dtd">
<svg version="1.0" xmlns="http://www.w3.org/2000/svg"
 width="1000.000000pt" height="1000.000000pt" viewBox="0 0 1000.000000 1000.000000"
 preserveAspectRatio="xMidYMid meet">
<metadata>
Created by potrace 1.14, written by Peter Selinger 2001-2017
</metadata>
<g transform="translate(0.000000,1000.000000) scale(0.100000,-0.100000)"
fill="#000000" stroke="none">
<path d="M2523 6093 l0 -3221 2508 0 2507 0 0 744 0 744 -27 1 c-14 0 -725 1
-1578 1 l-1553 1 -2 2476 -3 2476 -926 0 -926 0 0 -3222z"/>
<path d="M2782 2460 c-5 -3 -8 -53 -8 -112 l1 -108 137 0 137 0 -2 112 -2 113
-128 0 c-70 0 -131 -2 -135 -5z"/>
<path d="M3146 2460 c-2 -3 -3 -53 -4 -113 l0 -108 136 3 137 3 2 108 c1 59
-2 108 -5 108 -24 4 -264 4 -266 -1z"/>
<path d="M2963 2192 c-29 -3 -37 -12 -48 -52 -1 -3 -5 -12 -8 -20 -21 -50
-129 -338 -132 -353 -2 -9 -7 -22 -10 -27 -7 -11 -231 -600 -245 -642 l-9 -28
157 0 157 0 36 98 36 97 199 3 199 2 35 -97 35 -98 159 -3 c148 -2 158 -1 151
15 -4 10 -29 79 -57 153 -27 74 -56 149 -64 167 -8 17 -14 34 -14 37 0 3 -15
45 -34 94 -19 48 -48 125 -65 172 -18 47 -36 94 -41 105 -5 11 -38 98 -74 194
-36 95 -67 175 -70 178 -5 6 -245 10 -293 5z m197 -527 c29 -88 55 -166 58
-172 3 -10 -26 -13 -123 -13 -117 0 -127 1 -120 18 4 9 11 31 17 47 5 17 12
37 16 45 3 8 6 17 7 20 15 59 79 229 85 223 4 -4 31 -80 60 -168z"/>
<path d="M3798 2192 l-38 -3 0 -560 0 -559 348 0 c252 1 363 5 398 14 132 35
198 101 234 236 16 60 16 571 0 632 -35 127 -130 213 -258 234 -39 6 -620 11
-684 6z m605 -245 c55 -36 60 -60 59 -312 0 -339 2 -335 -253 -338 l-159 -2 0
331 c0 182 3 333 6 337 4 3 77 5 163 4 130 -2 162 -5 184 -20z"/>
<path d="M4927 2192 c-16 -3 -17 -47 -17 -563 l0 -559 445 0 445 0 0 114 0
114 -282 0 c-156 0 -291 1 -300 1 -16 1 -18 13 -18 115 l0 113 230 0 c127 0
232 2 235 5 7 7 9 207 2 215 -4 3 -110 6 -237 6 l-230 0 0 108 0 107 263 0
c144 0 279 1 300 1 l37 1 0 113 0 112 -428 0 c-236 0 -436 -1 -445 -3z"/>
<path d="M5933 2187 c-4 -6 -6 -679 -4 -1044 l1 -73 435 0 435 0 0 114 0 113
-285 0 c-157 1 -289 3 -292 7 -3 3 -6 205 -7 448 l-1 442 -138 0 c-77 1 -141
-3 -144 -7z"/>
<path d="M6883 2192 c-20 -3 -21 -8 -21 -115 l1 -112 73 1 72 1 0 -333 c-1
-300 -2 -334 -17 -335 -9 0 -41 -2 -71 -2 l-55 -2 -1 -112 -1 -113 288 0 289
0 0 114 0 115 -65 -1 c-36 -1 -68 2 -71 5 -5 4 -9 562 -5 649 1 13 11 16 54
16 28 0 60 1 70 1 15 1 17 13 17 111 l0 110 -27 1 c-102 3 -512 3 -530 1z"/>
</g>
</svg>
